<mxfile host="app.diagrams.net" agent="Mozilla/5.0 (Windows NT 10.0; Win64; x64) AppleWebKit/537.36 (KHTML, like Gecko) Chrome/138.0.0.0 Safari/537.36" version="28.0.7">
  <diagram id="C5RBs43oDa-KdzZeNtuy" name="Page-1">
    <mxGraphModel dx="854" dy="461" grid="1" gridSize="10" guides="1" tooltips="1" connect="1" arrows="1" fold="1" page="1" pageScale="1" pageWidth="827" pageHeight="1169" math="0" shadow="0">
      <root>
        <mxCell id="WIyWlLk6GJQsqaUBKTNV-0" />
        <mxCell id="WIyWlLk6GJQsqaUBKTNV-1" parent="WIyWlLk6GJQsqaUBKTNV-0" />
        <mxCell id="EgGYFSKILOmfmFgATXlX-0" value="" style="rounded=0;whiteSpace=wrap;html=1;fillColor=#fa6800;fontColor=#000000;strokeColor=#C73500;" vertex="1" parent="WIyWlLk6GJQsqaUBKTNV-1">
          <mxGeometry x="240" y="40" width="370" height="30" as="geometry" />
        </mxCell>
        <mxCell id="EgGYFSKILOmfmFgATXlX-21" style="edgeStyle=orthogonalEdgeStyle;rounded=0;orthogonalLoop=1;jettySize=auto;html=1;exitX=0;exitY=0.5;exitDx=0;exitDy=0;" edge="1" parent="WIyWlLk6GJQsqaUBKTNV-1" source="EgGYFSKILOmfmFgATXlX-1">
          <mxGeometry relative="1" as="geometry">
            <mxPoint x="80" y="130" as="targetPoint" />
          </mxGeometry>
        </mxCell>
        <mxCell id="EgGYFSKILOmfmFgATXlX-1" value="" style="rounded=0;whiteSpace=wrap;html=1;fillColor=#fa6800;fontColor=#000000;strokeColor=#C73500;" vertex="1" parent="WIyWlLk6GJQsqaUBKTNV-1">
          <mxGeometry x="70" y="120" width="140" height="40" as="geometry" />
        </mxCell>
        <mxCell id="EgGYFSKILOmfmFgATXlX-3" value="" style="ellipse;whiteSpace=wrap;html=1;aspect=fixed;fillColor=#fa6800;fontColor=#000000;strokeColor=#C73500;" vertex="1" parent="WIyWlLk6GJQsqaUBKTNV-1">
          <mxGeometry x="280" y="100" width="80" height="80" as="geometry" />
        </mxCell>
        <mxCell id="EgGYFSKILOmfmFgATXlX-4" value="" style="ellipse;whiteSpace=wrap;html=1;aspect=fixed;fillColor=#fa6800;fontColor=#000000;strokeColor=#C73500;" vertex="1" parent="WIyWlLk6GJQsqaUBKTNV-1">
          <mxGeometry x="420" y="100" width="80" height="80" as="geometry" />
        </mxCell>
        <mxCell id="EgGYFSKILOmfmFgATXlX-5" value="" style="ellipse;whiteSpace=wrap;html=1;aspect=fixed;fillColor=#fa6800;fontColor=#000000;strokeColor=#C73500;" vertex="1" parent="WIyWlLk6GJQsqaUBKTNV-1">
          <mxGeometry x="100" y="210" width="80" height="80" as="geometry" />
        </mxCell>
        <mxCell id="EgGYFSKILOmfmFgATXlX-6" value="" style="ellipse;whiteSpace=wrap;html=1;aspect=fixed;fillColor=#fa6800;fontColor=#000000;strokeColor=#C73500;" vertex="1" parent="WIyWlLk6GJQsqaUBKTNV-1">
          <mxGeometry x="100" y="315" width="80" height="80" as="geometry" />
        </mxCell>
        <mxCell id="EgGYFSKILOmfmFgATXlX-7" value="" style="ellipse;whiteSpace=wrap;html=1;aspect=fixed;fillColor=#fa6800;fontColor=#000000;strokeColor=#C73500;" vertex="1" parent="WIyWlLk6GJQsqaUBKTNV-1">
          <mxGeometry x="280" y="220" width="80" height="80" as="geometry" />
        </mxCell>
        <mxCell id="EgGYFSKILOmfmFgATXlX-9" value="" style="ellipse;whiteSpace=wrap;html=1;aspect=fixed;fillColor=#fa6800;fontColor=#000000;strokeColor=#C73500;" vertex="1" parent="WIyWlLk6GJQsqaUBKTNV-1">
          <mxGeometry x="420" y="220" width="80" height="80" as="geometry" />
        </mxCell>
        <mxCell id="EgGYFSKILOmfmFgATXlX-11" value="" style="rounded=0;whiteSpace=wrap;html=1;fillColor=#fa6800;fontColor=#000000;strokeColor=#C73500;" vertex="1" parent="WIyWlLk6GJQsqaUBKTNV-1">
          <mxGeometry x="560" y="90" width="180" height="30" as="geometry" />
        </mxCell>
        <mxCell id="EgGYFSKILOmfmFgATXlX-12" value="" style="rounded=0;whiteSpace=wrap;html=1;fillColor=#fa6800;fontColor=#000000;strokeColor=#C73500;" vertex="1" parent="WIyWlLk6GJQsqaUBKTNV-1">
          <mxGeometry x="560" y="140" width="180" height="30" as="geometry" />
        </mxCell>
        <mxCell id="EgGYFSKILOmfmFgATXlX-13" value="" style="rounded=0;whiteSpace=wrap;html=1;fillColor=#fa6800;fontColor=#000000;strokeColor=#C73500;" vertex="1" parent="WIyWlLk6GJQsqaUBKTNV-1">
          <mxGeometry x="560" y="190" width="180" height="30" as="geometry" />
        </mxCell>
        <mxCell id="EgGYFSKILOmfmFgATXlX-14" value="" style="rounded=0;whiteSpace=wrap;html=1;fillColor=#fa6800;fontColor=#000000;strokeColor=#C73500;" vertex="1" parent="WIyWlLk6GJQsqaUBKTNV-1">
          <mxGeometry x="560" y="240" width="180" height="30" as="geometry" />
        </mxCell>
        <mxCell id="EgGYFSKILOmfmFgATXlX-15" value="" style="rounded=0;whiteSpace=wrap;html=1;fillColor=#fa6800;fontColor=#000000;strokeColor=#C73500;" vertex="1" parent="WIyWlLk6GJQsqaUBKTNV-1">
          <mxGeometry x="560" y="290" width="180" height="30" as="geometry" />
        </mxCell>
        <mxCell id="EgGYFSKILOmfmFgATXlX-16" value="" style="rounded=0;whiteSpace=wrap;html=1;fillColor=#fa6800;fontColor=#000000;strokeColor=#C73500;" vertex="1" parent="WIyWlLk6GJQsqaUBKTNV-1">
          <mxGeometry x="560" y="340" width="180" height="30" as="geometry" />
        </mxCell>
        <mxCell id="EgGYFSKILOmfmFgATXlX-17" value="" style="rounded=0;whiteSpace=wrap;html=1;fillColor=#fa6800;fontColor=#000000;strokeColor=#C73500;" vertex="1" parent="WIyWlLk6GJQsqaUBKTNV-1">
          <mxGeometry x="560" y="390" width="180" height="30" as="geometry" />
        </mxCell>
        <mxCell id="EgGYFSKILOmfmFgATXlX-18" value="" style="rounded=0;whiteSpace=wrap;html=1;fillColor=#fa6800;fontColor=#000000;strokeColor=#C73500;" vertex="1" parent="WIyWlLk6GJQsqaUBKTNV-1">
          <mxGeometry x="20" y="440" width="160" height="30" as="geometry" />
        </mxCell>
        <mxCell id="EgGYFSKILOmfmFgATXlX-19" value="" style="rounded=0;whiteSpace=wrap;html=1;fillColor=#fa6800;fontColor=#000000;strokeColor=#C73500;" vertex="1" parent="WIyWlLk6GJQsqaUBKTNV-1">
          <mxGeometry x="210" y="440" width="180" height="35" as="geometry" />
        </mxCell>
        <mxCell id="EgGYFSKILOmfmFgATXlX-20" value="" style="rounded=0;whiteSpace=wrap;html=1;fillColor=#fa6800;fontColor=#000000;strokeColor=#C73500;" vertex="1" parent="WIyWlLk6GJQsqaUBKTNV-1">
          <mxGeometry x="420" y="440" width="180" height="35" as="geometry" />
        </mxCell>
        <mxCell id="EgGYFSKILOmfmFgATXlX-23" value="" style="endArrow=classic;html=1;rounded=0;exitX=1;exitY=0.5;exitDx=0;exitDy=0;entryX=0;entryY=0.5;entryDx=0;entryDy=0;" edge="1" parent="WIyWlLk6GJQsqaUBKTNV-1" source="EgGYFSKILOmfmFgATXlX-1" target="EgGYFSKILOmfmFgATXlX-3">
          <mxGeometry width="50" height="50" relative="1" as="geometry">
            <mxPoint x="350" y="300" as="sourcePoint" />
            <mxPoint x="240" y="130" as="targetPoint" />
          </mxGeometry>
        </mxCell>
        <mxCell id="EgGYFSKILOmfmFgATXlX-24" value="" style="endArrow=classic;html=1;rounded=0;exitX=0.5;exitY=1;exitDx=0;exitDy=0;entryX=0.5;entryY=0;entryDx=0;entryDy=0;" edge="1" parent="WIyWlLk6GJQsqaUBKTNV-1" source="EgGYFSKILOmfmFgATXlX-3" target="EgGYFSKILOmfmFgATXlX-7">
          <mxGeometry width="50" height="50" relative="1" as="geometry">
            <mxPoint x="310" y="190" as="sourcePoint" />
            <mxPoint x="360" y="210" as="targetPoint" />
          </mxGeometry>
        </mxCell>
        <mxCell id="EgGYFSKILOmfmFgATXlX-25" value="" style="endArrow=classic;html=1;rounded=0;exitX=1.031;exitY=0.388;exitDx=0;exitDy=0;exitPerimeter=0;" edge="1" parent="WIyWlLk6GJQsqaUBKTNV-1" source="EgGYFSKILOmfmFgATXlX-7" target="EgGYFSKILOmfmFgATXlX-4">
          <mxGeometry width="50" height="50" relative="1" as="geometry">
            <mxPoint x="370" y="200" as="sourcePoint" />
            <mxPoint x="440" y="200" as="targetPoint" />
          </mxGeometry>
        </mxCell>
        <mxCell id="EgGYFSKILOmfmFgATXlX-26" value="" style="endArrow=classic;html=1;rounded=0;entryX=0.5;entryY=0;entryDx=0;entryDy=0;exitX=0.5;exitY=1;exitDx=0;exitDy=0;" edge="1" parent="WIyWlLk6GJQsqaUBKTNV-1" source="EgGYFSKILOmfmFgATXlX-4" target="EgGYFSKILOmfmFgATXlX-9">
          <mxGeometry width="50" height="50" relative="1" as="geometry">
            <mxPoint x="440" y="190" as="sourcePoint" />
            <mxPoint x="510" y="200" as="targetPoint" />
          </mxGeometry>
        </mxCell>
        <mxCell id="EgGYFSKILOmfmFgATXlX-27" value="" style="endArrow=classic;html=1;rounded=0;exitX=0.5;exitY=1;exitDx=0;exitDy=0;entryX=0.5;entryY=0;entryDx=0;entryDy=0;" edge="1" parent="WIyWlLk6GJQsqaUBKTNV-1" source="EgGYFSKILOmfmFgATXlX-1" target="EgGYFSKILOmfmFgATXlX-5">
          <mxGeometry width="50" height="50" relative="1" as="geometry">
            <mxPoint x="130" y="180" as="sourcePoint" />
            <mxPoint x="200" y="180" as="targetPoint" />
          </mxGeometry>
        </mxCell>
        <mxCell id="EgGYFSKILOmfmFgATXlX-28" value="" style="endArrow=classic;html=1;rounded=0;exitX=0.5;exitY=1;exitDx=0;exitDy=0;entryX=0.5;entryY=0;entryDx=0;entryDy=0;" edge="1" parent="WIyWlLk6GJQsqaUBKTNV-1" source="EgGYFSKILOmfmFgATXlX-5" target="EgGYFSKILOmfmFgATXlX-6">
          <mxGeometry width="50" height="50" relative="1" as="geometry">
            <mxPoint x="200" y="270" as="sourcePoint" />
            <mxPoint x="140" y="310" as="targetPoint" />
          </mxGeometry>
        </mxCell>
        <mxCell id="EgGYFSKILOmfmFgATXlX-29" value="" style="endArrow=classic;html=1;rounded=0;exitX=0;exitY=1;exitDx=0;exitDy=0;entryX=0.5;entryY=0;entryDx=0;entryDy=0;" edge="1" parent="WIyWlLk6GJQsqaUBKTNV-1" source="EgGYFSKILOmfmFgATXlX-9" target="EgGYFSKILOmfmFgATXlX-18">
          <mxGeometry width="50" height="50" relative="1" as="geometry">
            <mxPoint x="350" y="320" as="sourcePoint" />
            <mxPoint x="420" y="320" as="targetPoint" />
          </mxGeometry>
        </mxCell>
        <mxCell id="EgGYFSKILOmfmFgATXlX-30" value="" style="endArrow=classic;html=1;rounded=0;entryX=0.539;entryY=-0.065;entryDx=0;entryDy=0;entryPerimeter=0;exitX=0.29;exitY=0.95;exitDx=0;exitDy=0;exitPerimeter=0;" edge="1" parent="WIyWlLk6GJQsqaUBKTNV-1" source="EgGYFSKILOmfmFgATXlX-9" target="EgGYFSKILOmfmFgATXlX-19">
          <mxGeometry width="50" height="50" relative="1" as="geometry">
            <mxPoint x="445" y="301" as="sourcePoint" />
            <mxPoint x="500" y="330" as="targetPoint" />
          </mxGeometry>
        </mxCell>
        <mxCell id="EgGYFSKILOmfmFgATXlX-31" value="" style="endArrow=classic;html=1;rounded=0;entryX=0.429;entryY=-0.045;entryDx=0;entryDy=0;entryPerimeter=0;" edge="1" parent="WIyWlLk6GJQsqaUBKTNV-1" target="EgGYFSKILOmfmFgATXlX-20">
          <mxGeometry width="50" height="50" relative="1" as="geometry">
            <mxPoint x="470" y="300" as="sourcePoint" />
            <mxPoint x="530" y="360" as="targetPoint" />
          </mxGeometry>
        </mxCell>
        <mxCell id="EgGYFSKILOmfmFgATXlX-32" value="" style="endArrow=classic;html=1;rounded=0;exitX=1;exitY=0;exitDx=0;exitDy=0;" edge="1" parent="WIyWlLk6GJQsqaUBKTNV-1" source="EgGYFSKILOmfmFgATXlX-9">
          <mxGeometry width="50" height="50" relative="1" as="geometry">
            <mxPoint x="490" y="230" as="sourcePoint" />
            <mxPoint x="561.72" y="98.28" as="targetPoint" />
          </mxGeometry>
        </mxCell>
        <mxCell id="EgGYFSKILOmfmFgATXlX-34" value="" style="endArrow=classic;html=1;rounded=0;entryX=0;entryY=0.75;entryDx=0;entryDy=0;" edge="1" parent="WIyWlLk6GJQsqaUBKTNV-1" source="EgGYFSKILOmfmFgATXlX-9" target="EgGYFSKILOmfmFgATXlX-12">
          <mxGeometry width="50" height="50" relative="1" as="geometry">
            <mxPoint x="510" y="413.72" as="sourcePoint" />
            <mxPoint x="583.72" y="280" as="targetPoint" />
          </mxGeometry>
        </mxCell>
        <mxCell id="EgGYFSKILOmfmFgATXlX-35" value="" style="endArrow=classic;html=1;rounded=0;exitX=1;exitY=0.5;exitDx=0;exitDy=0;entryX=0;entryY=0.5;entryDx=0;entryDy=0;" edge="1" parent="WIyWlLk6GJQsqaUBKTNV-1" source="EgGYFSKILOmfmFgATXlX-9" target="EgGYFSKILOmfmFgATXlX-13">
          <mxGeometry width="50" height="50" relative="1" as="geometry">
            <mxPoint x="510" y="403.72" as="sourcePoint" />
            <mxPoint x="583.72" y="270" as="targetPoint" />
          </mxGeometry>
        </mxCell>
        <mxCell id="EgGYFSKILOmfmFgATXlX-38" value="" style="endArrow=classic;html=1;rounded=0;entryX=0;entryY=0.5;entryDx=0;entryDy=0;" edge="1" parent="WIyWlLk6GJQsqaUBKTNV-1" source="EgGYFSKILOmfmFgATXlX-9" target="EgGYFSKILOmfmFgATXlX-14">
          <mxGeometry width="50" height="50" relative="1" as="geometry">
            <mxPoint x="510" y="413.72" as="sourcePoint" />
            <mxPoint x="583.72" y="280" as="targetPoint" />
          </mxGeometry>
        </mxCell>
        <mxCell id="EgGYFSKILOmfmFgATXlX-39" value="" style="endArrow=classic;html=1;rounded=0;entryX=0;entryY=0.5;entryDx=0;entryDy=0;" edge="1" parent="WIyWlLk6GJQsqaUBKTNV-1" source="EgGYFSKILOmfmFgATXlX-9" target="EgGYFSKILOmfmFgATXlX-15">
          <mxGeometry width="50" height="50" relative="1" as="geometry">
            <mxPoint x="520" y="443.72" as="sourcePoint" />
            <mxPoint x="593.72" y="310" as="targetPoint" />
          </mxGeometry>
        </mxCell>
        <mxCell id="EgGYFSKILOmfmFgATXlX-40" value="" style="endArrow=classic;html=1;rounded=0;exitX=1;exitY=1;exitDx=0;exitDy=0;entryX=0;entryY=0.5;entryDx=0;entryDy=0;" edge="1" parent="WIyWlLk6GJQsqaUBKTNV-1" source="EgGYFSKILOmfmFgATXlX-9" target="EgGYFSKILOmfmFgATXlX-16">
          <mxGeometry width="50" height="50" relative="1" as="geometry">
            <mxPoint x="490" y="443.72" as="sourcePoint" />
            <mxPoint x="563.72" y="310" as="targetPoint" />
          </mxGeometry>
        </mxCell>
        <mxCell id="EgGYFSKILOmfmFgATXlX-41" value="" style="endArrow=classic;html=1;rounded=0;exitX=0.764;exitY=0.985;exitDx=0;exitDy=0;exitPerimeter=0;entryX=0;entryY=0.5;entryDx=0;entryDy=0;" edge="1" parent="WIyWlLk6GJQsqaUBKTNV-1" source="EgGYFSKILOmfmFgATXlX-9" target="EgGYFSKILOmfmFgATXlX-17">
          <mxGeometry width="50" height="50" relative="1" as="geometry">
            <mxPoint x="480" y="310" as="sourcePoint" />
            <mxPoint x="583.72" y="340" as="targetPoint" />
          </mxGeometry>
        </mxCell>
      </root>
    </mxGraphModel>
  </diagram>
</mxfile>
